<?xml version="1.0" encoding="UTF-8"?>
<!DOCTYPE svg PUBLIC "-//W3C//DTD SVG 1.1//EN" "http://www.w3.org/Graphics/SVG/1.1/DTD/svg11.dtd">
<!-- Creator: CorelDRAW -->
<svg xmlns="http://www.w3.org/2000/svg" xml:space="preserve" width="0.533331in" height="0.243331in" version="1.1" style="shape-rendering:geometricPrecision; text-rendering:geometricPrecision; image-rendering:optimizeQuality; fill-rule:evenodd; clip-rule:evenodd"
viewBox="0 0 533.33 243.33"
 xmlns:xlink="http://www.w3.org/1999/xlink"
 xmlns:xodm="http://www.corel.com/coreldraw/odm/2003">
 <defs>
  <style type="text/css">
   <![CDATA[
    .str0 {stroke:#DC6035;stroke-width:3;stroke-miterlimit:2.61313}
    .fil3 {fill:none}
    .fil0 {fill:#F58634}
    .fil17 {fill:#DE6535}
    .fil2 {fill:#DC6035}
    .fil18 {fill:#FEFEFE;fill-rule:nonzero}
    .fil1 {fill:#FEFEFE;fill-rule:nonzero}
    .fil4 {fill:#1A1A1A;fill-rule:nonzero}
    .fil16 {fill:url(#id5)}
    .fil14 {fill:url(#id6)}
    .fil15 {fill:url(#id7)}
    .fil8 {fill:url(#id8);fill-rule:nonzero}
    .fil13 {fill:url(#id9);fill-rule:nonzero}
    .fil5 {fill:url(#id10);fill-rule:nonzero}
    .fil7 {fill:url(#id11);fill-rule:nonzero}
    .fil9 {fill:url(#id12);fill-rule:nonzero}
    .fil12 {fill:url(#id13);fill-rule:nonzero}
    .fil11 {fill:url(#id14);fill-rule:nonzero}
    .fil6 {fill:url(#id15);fill-rule:nonzero}
    .fil10 {fill:url(#id16);fill-rule:nonzero}
   ]]>
  </style>
   <mask id="id0">
  <linearGradient id="id1" gradientUnits="userSpaceOnUse" x1="210.6" y1="-6.21" x2="210.6" y2="132.06">
   <stop offset="0" style="stop-opacity:1; stop-color:white"/>
   <stop offset="1" style="stop-opacity:0; stop-color:white"/>
  </linearGradient>
    <rect style="fill:url(#id1)" x="69.29" y="11.75" width="380.86" height="165.93"/>
   </mask>
   <clipPath id="id2">
    <path d="M180.33 42.33c17.26,0 31.25,14.59 31.25,32.58 0,17.99 -13.99,32.58 -31.25,32.58 -17.26,0 -31.25,-14.59 -31.25,-32.58 0,-18 13.99,-32.58 31.25,-32.58z"/>
   </clipPath>
    <clipPath id="id3">
     <path d="M180.33 42.33c17.26,0 31.25,14.59 31.25,32.58 0,17.99 -13.99,32.58 -31.25,32.58 -17.26,0 -31.25,-14.59 -31.25,-32.58 0,-18 13.99,-32.58 31.25,-32.58z"/>
    </clipPath>
    <clipPath id="id4">
     <path d="M180.33 42.33c17.26,0 31.25,14.59 31.25,32.58 0,17.99 -13.99,32.58 -31.25,32.58 -17.26,0 -31.25,-14.59 -31.25,-32.58 0,-18 13.99,-32.58 31.25,-32.58z"/>
    </clipPath>
  <linearGradient id="id5" gradientUnits="userSpaceOnUse" x1="434.65" y1="168.27" x2="441.89" y2="166.83">
   <stop offset="0" style="stop-opacity:1; stop-color:#DC6035"/>
   <stop offset="1" style="stop-opacity:1; stop-color:#FF9900"/>
  </linearGradient>
  <linearGradient id="id6" gradientUnits="userSpaceOnUse" xlink:href="#id5" x1="101.46" y1="168.27" x2="108.7" y2="166.83">
  </linearGradient>
  <linearGradient id="id7" gradientUnits="userSpaceOnUse" xlink:href="#id5" x1="225.98" y1="168.27" x2="233.22" y2="166.83">
  </linearGradient>
  <linearGradient id="id8" gradientUnits="userSpaceOnUse" xlink:href="#id5" x1="225.58" y1="125.02" x2="233.62" y2="167.1">
  </linearGradient>
  <linearGradient id="id9" gradientUnits="userSpaceOnUse" xlink:href="#id5" x1="434.24" y1="125.02" x2="442.29" y2="167.1">
  </linearGradient>
  <linearGradient id="id10" gradientUnits="userSpaceOnUse" xlink:href="#id5" x1="101.06" y1="125.02" x2="109.11" y2="167.1">
  </linearGradient>
  <linearGradient id="id11" gradientUnits="userSpaceOnUse" xlink:href="#id5" x1="183.15" y1="166.93" x2="191.96" y2="125.2">
  </linearGradient>
  <linearGradient id="id12" gradientUnits="userSpaceOnUse" xlink:href="#id5" x1="265.33" y1="166.8" x2="274.67" y2="125.33">
  </linearGradient>
  <linearGradient id="id13" gradientUnits="userSpaceOnUse" xlink:href="#id5" x1="391.82" y1="166.93" x2="400.63" y2="125.2">
  </linearGradient>
  <linearGradient id="id14" gradientUnits="userSpaceOnUse" xlink:href="#id5" x1="350.33" y1="166.74" x2="359.86" y2="125.37">
  </linearGradient>
  <linearGradient id="id15" gradientUnits="userSpaceOnUse" xlink:href="#id5" x1="139.36" y1="166.92" x2="148.4" y2="123.84">
  </linearGradient>
  <linearGradient id="id16" gradientUnits="userSpaceOnUse" xlink:href="#id5" x1="306.26" y1="166.85" x2="315.48" y2="124.59">
  </linearGradient>
 </defs>
 <g id="Layer_x0020_1">
  <metadata id="CorelCorpID_0Corel-Layer"/>
  <polygon class="fil0 str0" style="mask:url(#id0)" points="70.79,92.74 96.84,92.74 96.84,176.18 445.09,176.18 445.09,89.43 448.65,87.97 351.8,63.69 351.8,48.04 337.47,45.52 337.47,59.63 168.93,13.25 "/>
  <path class="fil1" d="M85.46 183.58l2.69 0 5.14 16.63 5.69 -16.63 2.58 0 5.14 16.63 5.72 -16.63 2.51 0 -5.69 17.29 -4.93 0 -4.14 -13.23 -4.37 13.23 -4.93 0 -5.4 -17.29zm32.37 17.29l0 -19.29 2.27 0 0 8.07c0.54,-0.69 1.22,-1.22 2.02,-1.59 0.8,-0.37 1.67,-0.55 2.59,-0.55 0.83,0 1.55,0.14 2.17,0.42 0.63,0.29 1.15,0.69 1.57,1.2 0.42,0.51 0.74,1.13 0.96,1.84 0.22,0.71 0.33,1.51 0.33,2.39l0 7.52 -2.27 0 0 -7.27c0,-1.17 -0.28,-2.13 -0.83,-2.87 -0.55,-0.74 -1.43,-1.11 -2.62,-1.11 -1.28,0 -2.26,0.42 -2.93,1.26 -0.67,0.84 -1,1.92 -1,3.24l0 6.75 -2.27 0zm22.48 0.27c-0.95,0 -1.82,-0.15 -2.61,-0.45 -0.79,-0.3 -1.48,-0.73 -2.06,-1.29 -0.58,-0.56 -1.03,-1.24 -1.36,-2.03 -0.32,-0.8 -0.48,-1.69 -0.48,-2.67 0,-2.23 0.54,-3.99 1.63,-5.27 1.09,-1.28 2.74,-1.92 4.95,-1.92 1.09,0 2.03,0.2 2.82,0.6 0.79,0.4 1.45,0.94 1.98,1.63 0.53,0.69 0.92,1.48 1.17,2.39 0.26,0.91 0.38,1.87 0.38,2.89l-10.51 0c0,0.61 0.1,1.15 0.31,1.63 0.21,0.48 0.5,0.9 0.87,1.25 0.37,0.35 0.8,0.62 1.29,0.81 0.49,0.2 1.03,0.29 1.61,0.29 0.47,0 0.93,-0.03 1.36,-0.08 0.43,-0.06 0.83,-0.17 1.19,-0.33 0.36,-0.16 0.67,-0.4 0.94,-0.71 0.26,-0.31 0.46,-0.72 0.58,-1.24l2.16 0c-0.07,0.92 -0.31,1.67 -0.71,2.25 -0.41,0.59 -0.9,1.04 -1.49,1.37 -0.59,0.33 -1.24,0.56 -1.94,0.69 -0.7,0.13 -1.4,0.19 -2.08,0.19zm3.95 -8.12c-0.23,-0.98 -0.66,-1.8 -1.29,-2.43 -0.63,-0.63 -1.53,-0.95 -2.69,-0.95 -0.63,0 -1.19,0.09 -1.66,0.29 -0.48,0.19 -0.88,0.44 -1.21,0.76 -0.33,0.31 -0.6,0.67 -0.79,1.07 -0.19,0.4 -0.33,0.82 -0.39,1.26l8.04 0zm6.83 7.85l0 -13.09 2.16 0 0 2.2c0.19,-0.37 0.39,-0.68 0.58,-0.95 0.19,-0.26 0.42,-0.49 0.67,-0.69 0.26,-0.19 0.56,-0.33 0.9,-0.43 0.34,-0.09 0.75,-0.14 1.22,-0.14l2.56 0 0 1.95 -1.69 0c-1.42,0 -2.47,0.41 -3.13,1.22 -0.67,0.81 -1,1.9 -1,3.25l0 6.67 -2.27 0zm17.06 0.27c-0.95,0 -1.82,-0.15 -2.61,-0.45 -0.79,-0.3 -1.48,-0.73 -2.06,-1.29 -0.58,-0.56 -1.03,-1.24 -1.36,-2.03 -0.32,-0.8 -0.48,-1.69 -0.48,-2.67 0,-2.23 0.54,-3.99 1.63,-5.27 1.09,-1.28 2.74,-1.92 4.96,-1.92 1.09,0 2.03,0.2 2.82,0.6 0.79,0.4 1.45,0.94 1.98,1.63 0.53,0.69 0.92,1.48 1.17,2.39 0.26,0.91 0.38,1.87 0.38,2.89l-10.52 0c0,0.61 0.11,1.15 0.32,1.63 0.21,0.48 0.5,0.9 0.87,1.25 0.37,0.35 0.8,0.62 1.3,0.81 0.49,0.2 1.03,0.29 1.61,0.29 0.47,0 0.93,-0.03 1.36,-0.08 0.43,-0.06 0.82,-0.17 1.19,-0.33 0.36,-0.16 0.67,-0.4 0.94,-0.71 0.26,-0.31 0.45,-0.72 0.58,-1.24l2.16 0c-0.07,0.92 -0.31,1.67 -0.71,2.25 -0.41,0.59 -0.9,1.04 -1.49,1.37 -0.59,0.33 -1.24,0.56 -1.94,0.69 -0.7,0.13 -1.4,0.19 -2.08,0.19zm3.95 -8.12c-0.23,-0.98 -0.66,-1.8 -1.29,-2.43 -0.63,-0.63 -1.53,-0.95 -2.69,-0.95 -0.63,0 -1.19,0.09 -1.66,0.29 -0.48,0.19 -0.88,0.44 -1.22,0.76 -0.33,0.31 -0.59,0.67 -0.79,1.07 -0.19,0.4 -0.33,0.82 -0.4,1.26l8.04 0zm33.74 7.85l0 -13.09 2.16 0 0 2.2c0.19,-0.37 0.39,-0.68 0.58,-0.95 0.2,-0.26 0.42,-0.49 0.67,-0.69 0.26,-0.19 0.56,-0.33 0.9,-0.43 0.34,-0.09 0.75,-0.14 1.22,-0.14l2.56 0 0 1.95 -1.69 0c-1.42,0 -2.47,0.41 -3.14,1.22 -0.67,0.81 -1,1.9 -1,3.25l0 6.67 -2.27 0zm17.06 0.27c-0.95,0 -1.82,-0.15 -2.61,-0.45 -0.79,-0.3 -1.48,-0.73 -2.06,-1.29 -0.58,-0.56 -1.03,-1.24 -1.35,-2.03 -0.33,-0.8 -0.49,-1.69 -0.49,-2.67 0,-2.23 0.54,-3.99 1.63,-5.27 1.09,-1.28 2.74,-1.92 4.95,-1.92 1.09,0 2.03,0.2 2.82,0.6 0.79,0.4 1.45,0.94 1.98,1.63 0.53,0.69 0.92,1.48 1.17,2.39 0.26,0.91 0.38,1.87 0.38,2.89l-10.51 0c0,0.61 0.1,1.15 0.31,1.63 0.21,0.48 0.5,0.9 0.87,1.25 0.37,0.35 0.8,0.62 1.29,0.81 0.49,0.2 1.03,0.29 1.61,0.29 0.48,0 0.93,-0.03 1.36,-0.08 0.43,-0.06 0.83,-0.17 1.19,-0.33 0.36,-0.16 0.67,-0.4 0.94,-0.71 0.26,-0.31 0.46,-0.72 0.58,-1.24l2.16 0c-0.07,0.92 -0.31,1.67 -0.71,2.25 -0.41,0.59 -0.9,1.04 -1.49,1.37 -0.59,0.33 -1.24,0.56 -1.94,0.69 -0.7,0.13 -1.4,0.19 -2.08,0.19zm3.95 -8.12c-0.23,-0.98 -0.66,-1.8 -1.29,-2.43 -0.63,-0.63 -1.53,-0.95 -2.69,-0.95 -0.63,0 -1.19,0.09 -1.66,0.29 -0.48,0.19 -0.88,0.44 -1.21,0.76 -0.33,0.31 -0.6,0.67 -0.79,1.07 -0.19,0.4 -0.33,0.82 -0.39,1.26l8.04 0zm16.98 7.85c-0.61,0 -1.1,-0.19 -1.46,-0.57 -0.36,-0.39 -0.54,-0.89 -0.54,-1.51l0 -0.49c-0.56,0.98 -1.24,1.72 -2.03,2.19 -0.79,0.48 -1.69,0.71 -2.69,0.71 -0.67,0 -1.3,-0.1 -1.91,-0.3 -0.61,-0.2 -1.13,-0.5 -1.58,-0.88 -0.45,-0.39 -0.8,-0.86 -1.06,-1.43 -0.26,-0.57 -0.37,-1.22 -0.33,-1.95 0.04,-0.57 0.15,-1.11 0.35,-1.65 0.2,-0.53 0.51,-1 0.93,-1.41 0.41,-0.41 0.94,-0.74 1.58,-0.98 0.64,-0.25 1.4,-0.37 2.28,-0.37l4.32 0 0 -1.18c-0.02,-0.42 -0.22,-0.72 -0.59,-0.88 -0.37,-0.17 -1,-0.25 -1.88,-0.25l-5.77 0 0 -2.17 5.85 0c1.06,0 1.89,0.11 2.52,0.31 0.63,0.21 1.1,0.51 1.42,0.91 0.33,0.39 0.54,0.87 0.65,1.41 0.1,0.55 0.16,1.15 0.16,1.81l0 6.64 1.4 0 0 2.03 -1.61 0zm-2.08 -6.64l-4.37 0c-0.95,0 -1.64,0.24 -2.08,0.73 -0.44,0.48 -0.66,1.09 -0.66,1.82 0,0.46 0.07,0.83 0.22,1.13 0.15,0.29 0.35,0.53 0.62,0.7 0.26,0.17 0.57,0.29 0.94,0.36 0.36,0.06 0.75,0.09 1.17,0.09 0.63,0 1.2,-0.12 1.71,-0.37 0.51,-0.25 0.95,-0.56 1.32,-0.93 0.37,-0.38 0.65,-0.79 0.84,-1.24 0.19,-0.45 0.29,-0.87 0.29,-1.28l0 -1.02zm7.33 6.64l0 -13.09 2.19 0 0 1.95c0.49,-0.75 1.12,-1.31 1.9,-1.67 0.77,-0.37 1.59,-0.55 2.45,-0.55 0.9,0 1.74,0.21 2.52,0.64 0.78,0.43 1.39,1.07 1.83,1.94 0.53,-0.84 1.24,-1.48 2.13,-1.92 0.9,-0.44 1.85,-0.66 2.87,-0.66 0.82,0 1.55,0.14 2.17,0.42 0.62,0.29 1.14,0.69 1.56,1.2 0.41,0.51 0.72,1.13 0.93,1.85 0.21,0.72 0.31,1.52 0.31,2.37l0 7.52 -2.26 0 0 -7.27c0,-0.55 -0.06,-1.07 -0.19,-1.55 -0.12,-0.48 -0.31,-0.91 -0.58,-1.26 -0.26,-0.36 -0.6,-0.64 -1.02,-0.85 -0.41,-0.21 -0.92,-0.31 -1.52,-0.31 -0.63,0 -1.18,0.12 -1.65,0.36 -0.46,0.24 -0.86,0.56 -1.17,0.96 -0.31,0.4 -0.55,0.88 -0.7,1.43 -0.15,0.55 -0.22,1.13 -0.22,1.76l0 6.75 -2.27 0 0 -7.27c0,-0.55 -0.06,-1.07 -0.19,-1.55 -0.12,-0.48 -0.31,-0.91 -0.58,-1.26 -0.26,-0.36 -0.6,-0.64 -1.02,-0.85 -0.41,-0.21 -0.92,-0.31 -1.52,-0.31 -0.63,0 -1.18,0.12 -1.65,0.36 -0.46,0.24 -0.85,0.56 -1.17,0.96 -0.31,0.4 -0.55,0.88 -0.7,1.43 -0.15,0.55 -0.22,1.13 -0.22,1.76l0 6.75 -2.27 0zm26.94 -4.26c0.06,0.22 0.16,0.47 0.32,0.76 0.16,0.28 0.39,0.56 0.71,0.81 0.32,0.26 0.72,0.47 1.22,0.66 0.5,0.19 1.12,0.28 1.86,0.28 1.12,0 2,-0.2 2.63,-0.61 0.63,-0.4 0.95,-0.84 0.95,-1.31 0,-0.42 -0.22,-0.78 -0.67,-1.07 -0.45,-0.29 -1.02,-0.49 -1.72,-0.6l-3.27 -0.52c-0.86,-0.15 -1.56,-0.35 -2.09,-0.62 -0.54,-0.26 -0.96,-0.56 -1.25,-0.89 -0.3,-0.33 -0.5,-0.68 -0.61,-1.06 -0.11,-0.38 -0.15,-0.73 -0.13,-1.06 0.02,-0.6 0.17,-1.14 0.46,-1.62 0.29,-0.48 0.69,-0.88 1.19,-1.21 0.5,-0.33 1.09,-0.58 1.79,-0.77 0.69,-0.18 1.46,-0.27 2.3,-0.27 1.09,0 2.02,0.13 2.78,0.41 0.77,0.28 1.4,0.62 1.9,1.03 0.5,0.41 0.89,0.85 1.15,1.31 0.26,0.46 0.44,0.87 0.53,1.26l-2.11 0.52c-0.06,-0.22 -0.16,-0.47 -0.33,-0.76 -0.17,-0.28 -0.41,-0.56 -0.74,-0.81 -0.33,-0.26 -0.74,-0.47 -1.24,-0.66 -0.5,-0.18 -1.12,-0.28 -1.86,-0.28 -1.11,0 -1.98,0.19 -2.61,0.56 -0.63,0.37 -0.95,0.8 -0.95,1.28 0,0.4 0.22,0.74 0.67,1.02 0.44,0.28 1.02,0.47 1.72,0.57l3.27 0.52c0.88,0.13 1.58,0.33 2.11,0.6 0.52,0.28 0.94,0.58 1.24,0.92 0.3,0.34 0.5,0.69 0.59,1.06 0.09,0.37 0.15,0.71 0.15,1.04 0,0.62 -0.14,1.19 -0.43,1.69 -0.28,0.5 -0.68,0.93 -1.19,1.28 -0.51,0.35 -1.11,0.61 -1.82,0.8 -0.7,0.18 -1.48,0.27 -2.32,0.27 -1.09,0 -2.02,-0.13 -2.78,-0.41 -0.76,-0.28 -1.39,-0.62 -1.89,-1.03 -0.49,-0.41 -0.87,-0.85 -1.13,-1.3 -0.26,-0.46 -0.44,-0.88 -0.53,-1.26l2.11 -0.52zm20.67 4.26l0 -13.09 2.19 0 0 1.95c0.49,-0.75 1.12,-1.31 1.9,-1.67 0.77,-0.37 1.59,-0.55 2.45,-0.55 0.9,0 1.74,0.21 2.52,0.64 0.78,0.43 1.39,1.07 1.83,1.94 0.53,-0.84 1.24,-1.48 2.14,-1.92 0.89,-0.44 1.85,-0.66 2.87,-0.66 0.83,0 1.55,0.14 2.17,0.42 0.63,0.29 1.14,0.69 1.56,1.2 0.41,0.51 0.72,1.13 0.94,1.85 0.21,0.72 0.31,1.52 0.31,2.37l0 7.52 -2.26 0 0 -7.27c0,-0.55 -0.06,-1.07 -0.19,-1.55 -0.13,-0.48 -0.31,-0.91 -0.58,-1.26 -0.26,-0.36 -0.6,-0.64 -1.02,-0.85 -0.41,-0.21 -0.92,-0.31 -1.52,-0.31 -0.63,0 -1.18,0.12 -1.65,0.36 -0.47,0.24 -0.86,0.56 -1.17,0.96 -0.32,0.4 -0.55,0.88 -0.7,1.43 -0.15,0.55 -0.22,1.13 -0.22,1.76l0 6.75 -2.27 0 0 -7.27c0,-0.55 -0.06,-1.07 -0.19,-1.55 -0.12,-0.48 -0.31,-0.91 -0.58,-1.26 -0.26,-0.36 -0.6,-0.64 -1.02,-0.85 -0.41,-0.21 -0.92,-0.31 -1.52,-0.31 -0.63,0 -1.18,0.12 -1.65,0.36 -0.46,0.24 -0.86,0.56 -1.17,0.96 -0.31,0.4 -0.55,0.88 -0.7,1.43 -0.15,0.55 -0.22,1.13 -0.22,1.76l0 6.75 -2.27 0zm31.44 0.27c-0.95,0 -1.82,-0.15 -2.61,-0.45 -0.79,-0.3 -1.48,-0.73 -2.06,-1.29 -0.58,-0.56 -1.03,-1.24 -1.36,-2.03 -0.32,-0.8 -0.49,-1.69 -0.49,-2.67 0,-2.23 0.55,-3.99 1.63,-5.27 1.09,-1.28 2.74,-1.92 4.96,-1.92 1.09,0 2.03,0.2 2.82,0.6 0.79,0.4 1.45,0.94 1.98,1.63 0.53,0.69 0.92,1.48 1.17,2.39 0.25,0.91 0.38,1.87 0.38,2.89l-10.52 0c0,0.61 0.11,1.15 0.31,1.63 0.21,0.48 0.5,0.9 0.87,1.25 0.37,0.35 0.8,0.62 1.29,0.81 0.49,0.2 1.03,0.29 1.61,0.29 0.47,0 0.93,-0.03 1.35,-0.08 0.43,-0.06 0.83,-0.17 1.19,-0.33 0.36,-0.16 0.67,-0.4 0.93,-0.71 0.26,-0.31 0.46,-0.72 0.58,-1.24l2.16 0c-0.07,0.92 -0.31,1.67 -0.71,2.25 -0.41,0.59 -0.9,1.04 -1.49,1.37 -0.59,0.33 -1.23,0.56 -1.94,0.69 -0.7,0.13 -1.39,0.19 -2.08,0.19zm3.95 -8.12c-0.23,-0.98 -0.66,-1.8 -1.29,-2.43 -0.63,-0.63 -1.53,-0.95 -2.69,-0.95 -0.63,0 -1.19,0.09 -1.66,0.29 -0.47,0.19 -0.88,0.44 -1.21,0.76 -0.33,0.31 -0.6,0.67 -0.79,1.07 -0.19,0.4 -0.32,0.82 -0.39,1.26l8.04 0zm12.36 8.12c-0.95,0 -1.82,-0.15 -2.61,-0.45 -0.79,-0.3 -1.48,-0.73 -2.06,-1.29 -0.58,-0.56 -1.03,-1.24 -1.35,-2.03 -0.33,-0.8 -0.49,-1.69 -0.49,-2.67 0,-2.23 0.54,-3.99 1.63,-5.27 1.09,-1.28 2.74,-1.92 4.95,-1.92 1.09,0 2.03,0.2 2.82,0.6 0.79,0.4 1.45,0.94 1.98,1.63 0.53,0.69 0.92,1.48 1.17,2.39 0.26,0.91 0.38,1.87 0.38,2.89l-10.51 0c0,0.61 0.11,1.15 0.31,1.63 0.21,0.48 0.5,0.9 0.87,1.25 0.37,0.35 0.8,0.62 1.29,0.81 0.49,0.2 1.03,0.29 1.61,0.29 0.48,0 0.93,-0.03 1.36,-0.08 0.43,-0.06 0.83,-0.17 1.19,-0.33 0.36,-0.16 0.67,-0.4 0.94,-0.71 0.26,-0.31 0.46,-0.72 0.58,-1.24l2.16 0c-0.07,0.92 -0.31,1.67 -0.71,2.25 -0.4,0.59 -0.9,1.04 -1.49,1.37 -0.59,0.33 -1.23,0.56 -1.94,0.69 -0.7,0.13 -1.4,0.19 -2.08,0.19zm3.95 -8.12c-0.23,-0.98 -0.66,-1.8 -1.29,-2.43 -0.63,-0.63 -1.53,-0.95 -2.69,-0.95 -0.63,0 -1.19,0.09 -1.66,0.29 -0.48,0.19 -0.88,0.44 -1.21,0.76 -0.33,0.31 -0.6,0.67 -0.79,1.07 -0.19,0.4 -0.33,0.82 -0.39,1.26l8.04 0zm7.44 -5.24l0 -3.65 2.24 0 0 3.65 5.06 0 0 1.95 -5.06 0 0 7.63c0,0.58 0.19,0.97 0.57,1.15 0.38,0.19 1.02,0.28 1.91,0.28l2.58 -0.03 0 2.11 -4.35 0c-0.96,0 -1.7,-0.28 -2.21,-0.85 -0.51,-0.57 -0.77,-1.44 -0.77,-2.63l0 -7.66 -2.4 0 0 -1.95 2.43 0zm40.49 13.36c-0.95,0 -1.82,-0.15 -2.61,-0.45 -0.79,-0.3 -1.48,-0.73 -2.06,-1.29 -0.58,-0.56 -1.03,-1.24 -1.36,-2.03 -0.32,-0.8 -0.48,-1.69 -0.48,-2.67 0,-2.23 0.54,-3.99 1.63,-5.27 1.09,-1.28 2.74,-1.92 4.96,-1.92 1.09,0 2.03,0.2 2.82,0.6 0.79,0.4 1.45,0.94 1.98,1.63 0.53,0.69 0.92,1.48 1.17,2.39 0.26,0.91 0.38,1.87 0.38,2.89l-10.52 0c0,0.61 0.11,1.15 0.32,1.63 0.21,0.48 0.5,0.9 0.87,1.25 0.37,0.35 0.8,0.62 1.29,0.81 0.49,0.2 1.03,0.29 1.61,0.29 0.47,0 0.93,-0.03 1.35,-0.08 0.43,-0.06 0.83,-0.17 1.19,-0.33 0.36,-0.16 0.67,-0.4 0.93,-0.71 0.26,-0.31 0.46,-0.72 0.58,-1.24l2.16 0c-0.07,0.92 -0.31,1.67 -0.71,2.25 -0.41,0.59 -0.9,1.04 -1.49,1.37 -0.59,0.33 -1.23,0.56 -1.93,0.69 -0.7,0.13 -1.4,0.19 -2.08,0.19zm3.95 -8.12c-0.23,-0.98 -0.66,-1.8 -1.29,-2.43 -0.63,-0.63 -1.53,-0.95 -2.69,-0.95 -0.63,0 -1.19,0.09 -1.66,0.29 -0.47,0.19 -0.88,0.44 -1.21,0.76 -0.33,0.31 -0.59,0.67 -0.79,1.07 -0.19,0.4 -0.33,0.82 -0.4,1.26l8.04 0zm16.98 7.85c-0.62,0 -1.1,-0.19 -1.46,-0.57 -0.36,-0.39 -0.54,-0.89 -0.54,-1.51l0 -0.49c-0.56,0.98 -1.24,1.72 -2.03,2.19 -0.79,0.48 -1.69,0.71 -2.69,0.71 -0.67,0 -1.3,-0.1 -1.91,-0.3 -0.6,-0.2 -1.13,-0.5 -1.58,-0.88 -0.45,-0.39 -0.8,-0.86 -1.06,-1.43 -0.26,-0.57 -0.36,-1.22 -0.33,-1.95 0.04,-0.57 0.16,-1.11 0.36,-1.65 0.2,-0.53 0.51,-1 0.92,-1.41 0.41,-0.41 0.94,-0.74 1.58,-0.98 0.64,-0.25 1.4,-0.37 2.28,-0.37l4.32 0 0 -1.18c-0.02,-0.42 -0.22,-0.72 -0.59,-0.88 -0.38,-0.17 -1,-0.25 -1.89,-0.25l-5.77 0 0 -2.17 5.85 0c1.06,0 1.89,0.11 2.52,0.31 0.62,0.21 1.1,0.51 1.42,0.91 0.33,0.39 0.54,0.87 0.65,1.41 0.11,0.55 0.16,1.15 0.16,1.81l0 6.64 1.4 0 0 2.03 -1.61 0zm-2.08 -6.64l-4.37 0c-0.95,0 -1.64,0.24 -2.08,0.73 -0.44,0.48 -0.66,1.09 -0.66,1.82 0,0.46 0.07,0.83 0.22,1.13 0.15,0.29 0.35,0.53 0.62,0.7 0.26,0.17 0.57,0.29 0.94,0.36 0.36,0.06 0.75,0.09 1.17,0.09 0.63,0 1.2,-0.12 1.71,-0.37 0.51,-0.25 0.95,-0.56 1.32,-0.93 0.37,-0.38 0.65,-0.79 0.84,-1.24 0.19,-0.45 0.29,-0.87 0.29,-1.28l0 -1.02zm7.3 6.64l0 -19.32 2.27 0 0 19.32 -2.27 0zm7.54 -17.56l2.26 0 0 2.22 -2.26 0 0 -2.22zm0 17.56l0 -13.09 2.26 0 0 13.09 -2.26 0zm8.15 -13.09l0 -3.65 2.24 0 0 3.65 5.06 0 0 1.95 -5.06 0 0 7.63c0,0.58 0.19,0.97 0.57,1.15 0.38,0.19 1.02,0.28 1.91,0.28l2.58 -0.03 0 2.11 -4.35 0c-0.96,0 -1.7,-0.28 -2.21,-0.85 -0.51,-0.57 -0.77,-1.44 -0.77,-2.63l0 -7.66 -2.4 0 0 -1.95 2.43 0zm14 13.09l-4.88 -13.09 2.37 0 4.32 11.77 4.4 -11.77 2.24 0 -6.98 18.88 -2.24 0 2.22 -5.79 -1.45 0zm-266.53 0l0 -17.29 7.01 0c1.24,0 2.41,0.19 3.5,0.57 1.09,0.39 2.04,0.95 2.85,1.69 0.81,0.74 1.44,1.65 1.91,2.72 0.46,1.07 0.7,2.29 0.7,3.66 0,1.37 -0.23,2.59 -0.7,3.67 -0.46,1.07 -1.1,1.98 -1.91,2.72 -0.81,0.74 -1.76,1.3 -2.85,1.69 -1.09,0.38 -2.26,0.57 -3.5,0.57l-7.01 0zm2.37 -2.14l4.48 0c0.95,0 1.84,-0.15 2.66,-0.44 0.83,-0.3 1.54,-0.72 2.15,-1.26 0.61,-0.55 1.08,-1.22 1.42,-2.03 0.34,-0.8 0.52,-1.73 0.52,-2.77 0,-1.04 -0.17,-1.96 -0.52,-2.77 -0.34,-0.81 -0.81,-1.48 -1.42,-2.03 -0.61,-0.55 -1.32,-0.97 -2.15,-1.26 -0.82,-0.29 -1.71,-0.44 -2.66,-0.44l-4.48 0 0 13zm185.54 2.14l0 -17.29 6.59 0c0.89,0 1.74,0.09 2.53,0.28 0.79,0.18 1.48,0.49 2.06,0.93 0.58,0.44 1.04,1.03 1.39,1.76 0.34,0.73 0.51,1.65 0.51,2.77 0,0.71 -0.11,1.37 -0.34,1.96 -0.23,0.59 -0.53,1.11 -0.91,1.56 -0.38,0.45 -0.81,0.81 -1.28,1.1 -0.48,0.28 -0.97,0.47 -1.48,0.56l4.03 6.37 -2.69 0 -3.85 -6.2 -4.19 0 0 6.2 -2.37 0zm2.37 -8.29l4.22 0c0.51,0 1,-0.04 1.49,-0.12 0.48,-0.09 0.92,-0.25 1.31,-0.51 0.4,-0.26 0.71,-0.62 0.95,-1.1 0.24,-0.48 0.35,-1.1 0.35,-1.87 0,-0.7 -0.11,-1.26 -0.32,-1.69 -0.21,-0.43 -0.5,-0.76 -0.87,-1 -0.37,-0.24 -0.8,-0.39 -1.31,-0.47 -0.5,-0.07 -1.04,-0.11 -1.62,-0.11l-4.22 0 0 6.86z"/>
  <path class="fil2" d="M180.33 42.33c17.26,0 31.25,14.59 31.25,32.58 0,17.99 -13.99,32.58 -31.25,32.58 -17.26,0 -31.25,-14.59 -31.25,-32.58 0,-18 13.99,-32.58 31.25,-32.58z"/>
  <g style="clip-path:url(#id2)">
   <g id="_1537351014000">
   </g>
   <g style="clip-path:url(#id3)">
    <image x="148.86" y="41.37" width="62.93" height="67.08" xlink:href="New logo with iso _Images\New logo with iso _ImgID1.png"/>
   </g>
   <g style="clip-path:url(#id4)">
   </g>
  </g>
  <path class="fil3" d="M180.33 42.33c17.26,0 31.25,14.59 31.25,32.58 0,17.99 -13.99,32.58 -31.25,32.58 -17.26,0 -31.25,-14.59 -31.25,-32.58 0,-18 13.99,-32.58 31.25,-32.58z"/>
  <path class="fil4" d="M456.69 123.67c-2.4,0 -4.23,1.94 -4.23,4.39 0,2.45 1.83,4.39 4.21,4.39 2.38,0 4.23,-1.94 4.23,-4.42 0,-2.48 -1.81,-4.37 -4.21,-4.37zm-0.02 7.98c-1.95,0 -3.38,-1.57 -3.38,-3.59 0,-2.02 1.43,-3.58 3.41,-3.58 1.97,0 3.39,1.53 3.39,3.56 0,2.03 -1.47,3.61 -3.42,3.61zm2.22 -4.28c0,-1.04 -0.76,-1.72 -2.02,-1.72l-2.02 0 0 4.83 1.24 0 0 -1.4 0.78 0 0.05 0 0.87 1.4 1.24 0 -1.02 -1.62c0.56,-0.28 0.87,-0.79 0.87,-1.5zm-2.81 0.75l0 -1.51 0.7 0c0.56,0 0.89,0.28 0.89,0.76 0,0.47 -0.32,0.75 -0.89,0.75l-0.7 0z"/>
  <polygon class="fil5" points="85.46,167.55 92.14,167.55 104.92,126.2 118.42,167.55 124.71,167.55 111.15,124.57 98.89,124.57 "/>
  <path class="fil6" d="M131 152.81c0.22,0.77 0.59,1.69 1.11,2.76 0.52,1.07 1.3,2.08 2.33,3.04 1.03,0.95 2.37,1.78 4.03,2.46 1.66,0.68 3.69,1.02 6.09,1.02 2.14,0 3.93,-0.19 5.37,-0.58 1.44,-0.39 2.61,-0.88 3.51,-1.47 0.89,-0.59 1.53,-1.26 1.9,-2.01 0.37,-0.75 0.56,-1.49 0.56,-2.22 0,-0.86 -0.23,-1.66 -0.69,-2.39 -0.46,-0.73 -1.07,-1.38 -1.83,-1.94 -0.76,-0.57 -1.65,-1.06 -2.65,-1.47 -1,-0.41 -2.06,-0.7 -3.15,-0.89l-6.62 -1.23c-3.06,-0.59 -5.55,-1.31 -7.47,-2.15 -1.93,-0.84 -3.41,-1.77 -4.46,-2.8 -1.05,-1.02 -1.76,-2.11 -2.13,-3.24 -0.37,-1.13 -0.56,-2.32 -0.56,-3.55 0,-3.82 1.47,-6.94 4.42,-9.35 2.95,-2.41 7.42,-3.62 13.4,-3.62 3.28,0 6.03,0.37 8.26,1.09 2.23,0.73 4.04,1.65 5.44,2.76 1.4,1.11 2.44,2.36 3.15,3.75 0.7,1.39 1.13,2.74 1.31,4.06l-5.7 1.23c-0.48,-2.18 -1.77,-3.97 -3.87,-5.36 -2.1,-1.39 -4.89,-2.08 -8.39,-2.08 -1.7,0 -3.28,0.17 -4.72,0.51 -1.44,0.34 -2.69,0.84 -3.73,1.5 -1.05,0.66 -1.86,1.44 -2.43,2.35 -0.57,0.91 -0.85,1.91 -0.85,3 0,1.86 0.83,3.24 2.49,4.13 1.66,0.89 3.95,1.6 6.88,2.15l6.95 1.37c2.84,0.54 5.11,1.24 6.81,2.08 1.7,0.84 3.01,1.78 3.93,2.8 0.92,1.02 1.52,2.07 1.8,3.14 0.28,1.07 0.43,2.1 0.43,3.1 0,2.05 -0.43,3.86 -1.28,5.43 -0.85,1.57 -2.04,2.9 -3.57,3.99 -1.53,1.09 -3.34,1.92 -5.44,2.49 -2.1,0.57 -4.39,0.85 -6.88,0.85 -3.32,0 -6.14,-0.44 -8.45,-1.33 -2.31,-0.89 -4.24,-2 -5.76,-3.34 -1.53,-1.34 -2.7,-2.76 -3.51,-4.26 -0.81,-1.5 -1.34,-2.87 -1.6,-4.09l5.57 -1.7z"/>
  <polygon class="fil7" points="169.8,167.55 169.8,124.57 175.7,124.57 175.7,143.06 199.42,143.06 199.42,124.57 205.32,124.57 205.32,167.55 199.42,167.55 199.42,148.38 175.7,148.38 175.7,167.55 "/>
  <polygon class="fil8" points="209.98,167.55 216.66,167.55 229.44,126.2 242.93,167.55 249.22,167.55 235.66,124.57 223.41,124.57 "/>
  <path class="fil9" d="M253.36 167.55l0 -42.98 17.24 0c2.09,0 4.1,0.23 6.03,0.69 1.92,0.45 3.63,1.19 5.11,2.22 1.48,1.02 2.67,2.39 3.57,4.09 0.89,1.7 1.34,3.81 1.34,6.31 0,2.59 -0.47,4.79 -1.41,6.58 -0.94,1.8 -2.16,3.28 -3.67,4.43 -1.51,1.16 -3.22,2 -5.14,2.53 -1.92,0.52 -3.87,0.78 -5.83,0.78l-11.34 0 0 15.35 -5.9 0zm5.9 -20.67l11.2 0c1.31,0 2.59,-0.15 3.83,-0.44 1.24,-0.3 2.33,-0.8 3.28,-1.5 0.94,-0.7 1.7,-1.63 2.29,-2.76 0.59,-1.14 0.89,-2.55 0.89,-4.23 0,-1.78 -0.31,-3.19 -0.95,-4.23 -0.63,-1.04 -1.44,-1.85 -2.43,-2.42 -0.98,-0.57 -2.09,-0.94 -3.31,-1.13 -1.22,-0.18 -2.42,-0.27 -3.6,-0.27l-11.2 0 0 16.99z"/>
  <path class="fil10" d="M299.3 123.89l0 25.52c0,4.14 0.89,7.29 2.65,9.45 1.77,2.16 4.77,3.24 9.01,3.24 4.24,0 7.24,-1.08 9.01,-3.24 1.77,-2.16 2.65,-5.31 2.65,-9.45l0 -25.52 5.7 0 0 25.79c0,11.92 -5.81,17.87 -17.43,17.87 -5.85,0 -10.23,-1.5 -13.14,-4.5 -2.91,-3 -4.36,-7.46 -4.36,-13.37l0 -25.79 5.9 0z"/>
  <path class="fil11" d="M338.82 167.55l0 -42.98 16.38 0c2.23,0 4.32,0.23 6.29,0.69 1.96,0.45 3.67,1.23 5.11,2.32 1.44,1.09 2.59,2.55 3.44,4.37 0.85,1.82 1.28,4.11 1.28,6.89 0,1.78 -0.28,3.4 -0.85,4.88 -0.57,1.48 -1.32,2.78 -2.26,3.89 -0.94,1.11 -2,2.02 -3.18,2.73 -1.18,0.7 -2.4,1.17 -3.67,1.4l10.03 15.83 -6.69 0 -9.57 -15.42 -10.42 0 0 15.42 -5.9 0zm5.9 -20.6l10.48 0c1.26,0 2.5,-0.1 3.7,-0.31 1.2,-0.2 2.3,-0.63 3.28,-1.26 0.98,-0.64 1.77,-1.55 2.36,-2.73 0.59,-1.19 0.89,-2.73 0.89,-4.64 0,-1.73 -0.26,-3.13 -0.79,-4.2 -0.52,-1.07 -1.24,-1.9 -2.16,-2.49 -0.92,-0.59 -2,-0.98 -3.24,-1.16 -1.24,-0.18 -2.59,-0.27 -4.03,-0.27l-10.48 0 0 17.06z"/>
  <polygon class="fil12" points="378.47,124.57 389.08,124.57 408.09,163.53 408.09,124.57 413.98,124.57 413.98,167.55 403.89,167.55 384.37,127.43 384.37,167.55 378.47,167.55 "/>
  <polygon class="fil13" points="418.64,167.55 425.33,167.55 438.1,126.2 451.6,167.55 457.89,167.55 444.33,124.57 432.07,124.57 "/>
  <polygon class="fil14" points="105.08,152.51 109.48,167.55 100.69,167.55 "/>
  <polygon class="fil15" points="229.6,152.51 234,167.55 225.2,167.55 "/>
  <polygon class="fil16" points="438.27,152.51 442.67,167.55 433.87,167.55 "/>
  <polygon class="fil17" points="85.5,210.65 462.54,210.65 462.54,230.08 85.5,230.08 "/>
  <path class="fil18" d="M166.54 226.54l-2.61 0 -1.04 -2.81 -4.74 0 -0.98 2.81 -2.55 0 4.63 -12.36 2.54 0 4.76 12.36zm-4.42 -4.89l-1.63 -4.59 -1.61 4.59 3.24 0zm5.72 4.89l0 -12.36 2.33 0 4.87 8.25 0 -8.25 2.23 0 0 12.36 -2.41 0 -4.79 -8.06 0 8.06 -2.23 0zm16.51 0l0 -12.36 2.39 0 0 12.36 -2.39 0zm4.09 -4.02l2.34 -0.24c0.26,1.58 1.13,2.37 2.59,2.37 0.72,0 1.3,-0.16 1.71,-0.48 0.42,-0.32 0.63,-0.72 0.63,-1.2 0,-0.28 -0.07,-0.52 -0.22,-0.72 -0.15,-0.2 -0.37,-0.36 -0.67,-0.48 -0.3,-0.13 -1.01,-0.34 -2.15,-0.64 -1.02,-0.26 -1.77,-0.55 -2.24,-0.86 -0.48,-0.31 -0.85,-0.72 -1.13,-1.22 -0.28,-0.5 -0.42,-1.04 -0.42,-1.62 0,-0.67 0.18,-1.28 0.54,-1.82 0.36,-0.54 0.86,-0.95 1.49,-1.22 0.63,-0.27 1.41,-0.41 2.35,-0.41 1.4,0 2.49,0.32 3.27,0.97 0.78,0.65 1.2,1.57 1.24,2.77l-2.4 0.11c-0.11,-0.67 -0.33,-1.13 -0.69,-1.39 -0.35,-0.26 -0.85,-0.4 -1.49,-0.4 -0.65,0 -1.14,0.12 -1.49,0.35 -0.35,0.23 -0.53,0.52 -0.53,0.86 0,0.33 0.16,0.62 0.48,0.85 0.32,0.23 1.05,0.48 2.19,0.76 1.21,0.3 2.08,0.61 2.62,0.94 0.54,0.33 0.95,0.75 1.23,1.27 0.28,0.52 0.43,1.15 0.43,1.89 0,1.07 -0.39,1.97 -1.16,2.7 -0.78,0.73 -1.99,1.09 -3.64,1.09 -2.91,0 -4.54,-1.41 -4.86,-4.24zm11.2 -2.08c0,-1.47 0.25,-2.69 0.76,-3.64 0.51,-0.95 1.18,-1.66 2,-2.13 0.82,-0.46 1.82,-0.7 3,-0.7 1.7,0 3.09,0.55 4.16,1.66 1.07,1.11 1.61,2.69 1.61,4.73 0,2.06 -0.57,3.68 -1.7,4.84 -1,1.03 -2.35,1.54 -4.06,1.54 -1.72,0 -3.08,-0.51 -4.07,-1.52 -1.13,-1.17 -1.7,-2.76 -1.7,-4.79zm2.47 -0.09c0,1.43 0.32,2.49 0.95,3.2 0.63,0.71 1.42,1.07 2.36,1.07 0.94,0 1.72,-0.35 2.34,-1.06 0.62,-0.7 0.93,-1.79 0.93,-3.25 0,-1.43 -0.3,-2.49 -0.91,-3.18 -0.6,-0.69 -1.39,-1.03 -2.37,-1.03 -0.98,0 -1.77,0.35 -2.39,1.04 -0.61,0.69 -0.92,1.76 -0.92,3.21zm15.09 3.33l2.2 -0.25c0.11,0.91 0.54,1.37 1.29,1.37 0.51,0 0.92,-0.22 1.24,-0.69 0.33,-0.46 0.53,-1.39 0.63,-2.79 -0.28,0.35 -0.6,0.6 -0.96,0.78 -0.35,0.17 -0.75,0.26 -1.19,0.26 -0.91,0 -1.7,-0.37 -2.4,-1.11 -0.7,-0.74 -1.04,-1.71 -1.04,-2.93 0,-1.3 0.37,-2.33 1.1,-3.07 0.73,-0.75 1.64,-1.12 2.71,-1.12 1.2,0 2.19,0.48 2.97,1.44 0.78,0.96 1.17,2.56 1.17,4.79 0,2.28 -0.41,3.91 -1.22,4.9 -0.81,0.99 -1.86,1.49 -3.15,1.49 -0.9,0 -1.64,-0.25 -2.22,-0.75 -0.58,-0.5 -0.96,-1.28 -1.12,-2.32zm5.16 -5.18c0,-0.78 -0.17,-1.37 -0.51,-1.78 -0.34,-0.42 -0.73,-0.63 -1.17,-0.63 -0.42,0 -0.77,0.17 -1.05,0.52 -0.28,0.34 -0.42,0.91 -0.42,1.71 0,0.8 0.15,1.38 0.46,1.75 0.3,0.37 0.68,0.56 1.13,0.56 0.43,0 0.8,-0.18 1.11,-0.53 0.31,-0.35 0.46,-0.89 0.46,-1.59zm7.89 -4.37c1.15,0 2.09,0.47 2.8,1.4 0.71,0.94 1.07,2.57 1.07,4.91 0,2.33 -0.35,3.96 -1.07,4.9 -0.71,0.94 -1.65,1.41 -2.79,1.41 -1.15,0 -2.09,-0.46 -2.8,-1.39 -0.71,-0.93 -1.07,-2.57 -1.07,-4.94 0,-2.32 0.35,-3.95 1.07,-4.89 0.71,-0.93 1.64,-1.4 2.79,-1.4zm0 1.96c-0.45,0 -0.81,0.25 -1.07,0.76 -0.27,0.5 -0.4,1.7 -0.4,3.59 0,1.89 0.13,3.08 0.4,3.58 0.27,0.5 0.63,0.76 1.07,0.76 0.45,0 0.81,-0.26 1.07,-0.76 0.26,-0.51 0.4,-1.7 0.4,-3.58 0,-1.89 -0.13,-3.09 -0.4,-3.59 -0.26,-0.51 -0.62,-0.76 -1.07,-0.76zm9.24 -1.96c1.15,0 2.09,0.47 2.8,1.4 0.71,0.94 1.07,2.57 1.07,4.91 0,2.33 -0.35,3.96 -1.07,4.9 -0.71,0.94 -1.65,1.41 -2.79,1.41 -1.16,0 -2.09,-0.46 -2.8,-1.39 -0.71,-0.93 -1.07,-2.57 -1.07,-4.94 0,-2.32 0.35,-3.95 1.07,-4.89 0.71,-0.93 1.64,-1.4 2.79,-1.4zm0 1.96c-0.45,0 -0.81,0.25 -1.07,0.76 -0.26,0.5 -0.4,1.7 -0.4,3.59 0,1.89 0.14,3.08 0.4,3.58 0.27,0.5 0.63,0.76 1.07,0.76 0.45,0 0.81,-0.26 1.07,-0.76 0.26,-0.51 0.4,-1.7 0.4,-3.58 0,-1.89 -0.13,-3.09 -0.4,-3.59 -0.26,-0.51 -0.62,-0.76 -1.07,-0.76zm11.22 10.44l-2.28 0 0 -8.93c-0.85,0.82 -1.83,1.42 -2.95,1.8l0 -2.15c0.63,-0.22 1.29,-0.61 1.97,-1.17 0.68,-0.57 1.15,-1.22 1.41,-1.95l1.84 0 0 12.41zm8.94 -6.58l0 -2.37 2.28 0 0 2.37 -2.28 0zm0 6.58l0 -2.37 2.28 0 0 2.37 -2.28 0zm16.93 -2.2l0 2.2 -7.99 0c0.08,-0.83 0.35,-1.63 0.79,-2.37 0.44,-0.75 1.29,-1.74 2.56,-2.96 1,-0.97 1.62,-1.63 1.85,-1.97 0.34,-0.5 0.51,-1 0.51,-1.51 0,-0.54 -0.14,-0.94 -0.42,-1.22 -0.28,-0.28 -0.66,-0.41 -1.12,-0.41 -1,0 -1.55,0.65 -1.63,1.93l-2.26 -0.24c0.14,-1.26 0.55,-2.18 1.23,-2.77 0.68,-0.59 1.59,-0.89 2.72,-0.89 1.24,0 2.19,0.35 2.82,1.04 0.63,0.69 0.95,1.48 0.95,2.37 0,0.51 -0.08,1 -0.24,1.47 -0.16,0.47 -0.41,0.95 -0.74,1.43 -0.33,0.48 -0.9,1.09 -1.69,1.84 -0.73,0.7 -1.19,1.17 -1.39,1.39 -0.2,0.22 -0.35,0.44 -0.47,0.66l4.53 0zm5.39 -10.21c1.15,0 2.09,0.47 2.8,1.4 0.71,0.94 1.07,2.57 1.07,4.91 0,2.33 -0.35,3.96 -1.07,4.9 -0.71,0.94 -1.64,1.41 -2.79,1.41 -1.15,0 -2.09,-0.46 -2.8,-1.39 -0.71,-0.93 -1.07,-2.57 -1.07,-4.94 0,-2.32 0.35,-3.95 1.07,-4.89 0.71,-0.93 1.65,-1.4 2.79,-1.4zm0 1.96c-0.45,0 -0.81,0.25 -1.07,0.76 -0.27,0.5 -0.4,1.7 -0.4,3.59 0,1.89 0.13,3.08 0.4,3.58 0.26,0.5 0.62,0.76 1.07,0.76 0.45,0 0.81,-0.26 1.08,-0.76 0.26,-0.51 0.39,-1.7 0.39,-3.58 0,-1.89 -0.13,-3.09 -0.39,-3.59 -0.26,-0.51 -0.63,-0.76 -1.08,-0.76zm9.24 -1.96c1.15,0 2.08,0.47 2.8,1.4 0.71,0.94 1.07,2.57 1.07,4.91 0,2.33 -0.35,3.96 -1.07,4.9 -0.71,0.94 -1.64,1.41 -2.79,1.41 -1.15,0 -2.09,-0.46 -2.8,-1.39 -0.71,-0.93 -1.07,-2.57 -1.07,-4.94 0,-2.32 0.35,-3.95 1.07,-4.89 0.71,-0.93 1.65,-1.4 2.8,-1.4zm0 1.96c-0.45,0 -0.81,0.25 -1.07,0.76 -0.27,0.5 -0.4,1.7 -0.4,3.59 0,1.89 0.13,3.08 0.4,3.58 0.27,0.5 0.62,0.76 1.07,0.76 0.45,0 0.81,-0.26 1.07,-0.76 0.26,-0.51 0.39,-1.7 0.39,-3.58 0,-1.89 -0.13,-3.09 -0.39,-3.59 -0.26,-0.51 -0.63,-0.76 -1.07,-0.76zm7.35 3.78c-0.56,-0.24 -0.98,-0.59 -1.27,-1.01 -0.28,-0.43 -0.43,-0.94 -0.43,-1.54 0,-0.97 0.32,-1.75 0.97,-2.32 0.65,-0.57 1.52,-0.87 2.61,-0.87 1.16,0 2.04,0.31 2.65,0.92 0.6,0.62 0.91,1.37 0.91,2.25 0,0.6 -0.15,1.12 -0.44,1.57 -0.3,0.44 -0.7,0.78 -1.2,1 0.68,0.28 1.19,0.67 1.52,1.19 0.33,0.51 0.5,1.13 0.5,1.87 0,0.77 -0.17,1.44 -0.5,2.02 -0.33,0.58 -0.79,1.03 -1.38,1.34 -0.59,0.31 -1.24,0.46 -1.98,0.46 -1.15,0 -2.1,-0.34 -2.84,-1.02 -0.75,-0.68 -1.13,-1.59 -1.13,-2.74 0,-0.74 0.17,-1.38 0.52,-1.91 0.34,-0.53 0.83,-0.94 1.47,-1.22zm0.46 -2.38c0,0.48 0.13,0.85 0.4,1.11 0.27,0.26 0.61,0.39 1.02,0.39 0.42,0 0.76,-0.13 1.03,-0.39 0.27,-0.26 0.41,-0.63 0.41,-1.11 0,-0.47 -0.13,-0.83 -0.4,-1.09 -0.26,-0.26 -0.6,-0.39 -1,-0.39 -0.42,0 -0.77,0.13 -1.04,0.39 -0.27,0.26 -0.41,0.62 -0.41,1.09zm-0.21 5.29c0,0.66 0.17,1.17 0.5,1.54 0.33,0.36 0.72,0.54 1.19,0.54 0.46,0 0.85,-0.17 1.16,-0.51 0.31,-0.34 0.47,-0.86 0.47,-1.54 0,-0.59 -0.16,-1.06 -0.48,-1.4 -0.32,-0.34 -0.72,-0.52 -1.19,-0.52 -0.46,0 -0.85,0.17 -1.17,0.52 -0.31,0.34 -0.48,0.8 -0.48,1.38zm19.75 -0.78l2.33 0.76c-0.37,1.39 -0.96,2.39 -1.81,3.03 -0.84,0.64 -1.88,0.96 -3.11,0.96 -1.55,0 -2.81,-0.51 -3.77,-1.52 -1.11,-1.17 -1.67,-2.76 -1.67,-4.75 0,-2.11 0.56,-3.76 1.67,-4.95 0.97,-1.04 2.27,-1.55 3.91,-1.55 1.33,0 2.44,0.39 3.34,1.16 0.64,0.55 1.11,1.37 1.4,2.45l-2.37 0.59c-0.15,-0.67 -0.45,-1.18 -0.9,-1.54 -0.45,-0.36 -0.99,-0.54 -1.6,-0.54 -0.88,0 -1.59,0.33 -2.15,0.98 -0.56,0.65 -0.83,1.72 -0.83,3.23 0,1.56 0.27,2.66 0.81,3.32 0.54,0.66 1.24,0.99 2.11,0.99 0.63,0 1.18,-0.21 1.64,-0.63 0.46,-0.42 0.8,-1.08 1,-1.99zm3.9 -1.56c0,-1.47 0.25,-2.69 0.76,-3.64 0.51,-0.95 1.18,-1.66 2,-2.13 0.82,-0.46 1.82,-0.7 3,-0.7 1.7,0 3.09,0.55 4.16,1.66 1.07,1.11 1.61,2.69 1.61,4.73 0,2.06 -0.57,3.68 -1.7,4.84 -1,1.03 -2.35,1.54 -4.06,1.54 -1.72,0 -3.08,-0.51 -4.07,-1.52 -1.13,-1.17 -1.7,-2.76 -1.7,-4.79zm2.47 -0.09c0,1.43 0.32,2.49 0.95,3.2 0.63,0.71 1.42,1.07 2.36,1.07 0.94,0 1.72,-0.35 2.34,-1.06 0.62,-0.7 0.93,-1.79 0.93,-3.25 0,-1.43 -0.3,-2.49 -0.91,-3.18 -0.6,-0.69 -1.39,-1.03 -2.37,-1.03 -0.98,0 -1.77,0.35 -2.39,1.04 -0.61,0.69 -0.92,1.76 -0.92,3.21zm10.9 6.19l0 -12.36 3.59 0 2.16 8.43 2.14 -8.43 3.6 0 0 12.36 -2.23 0 0 -9.73 -2.36 9.73 -2.31 0 -2.34 -9.73 0 9.73 -2.24 0zm13.87 0l0 -12.36 3.86 0c1.44,0 2.38,0.06 2.82,0.18 0.7,0.19 1.29,0.6 1.75,1.22 0.46,0.63 0.69,1.43 0.69,2.41 0,0.89 -0.2,1.64 -0.59,2.24 -0.4,0.61 -0.89,1.03 -1.49,1.27 -0.59,0.24 -1.61,0.37 -3.06,0.37l-1.57 0 0 4.66 -2.39 0zm2.39 -10.27l0 3.5 1.33 0c0.89,0 1.5,-0.05 1.81,-0.16 0.32,-0.11 0.58,-0.3 0.78,-0.58 0.21,-0.28 0.31,-0.62 0.31,-1.02 0,-0.41 -0.1,-0.76 -0.31,-1.04 -0.21,-0.28 -0.47,-0.47 -0.78,-0.57 -0.31,-0.09 -0.97,-0.14 -1.97,-0.14l-1.17 0zm18.19 10.27l-2.61 0 -1.04 -2.81 -4.74 0 -0.98 2.81 -2.55 0 4.63 -12.36 2.54 0 4.76 12.36zm-4.42 -4.89l-1.63 -4.59 -1.61 4.59 3.24 0zm5.72 4.89l0 -12.36 2.33 0 4.87 8.25 0 -8.25 2.23 0 0 12.36 -2.41 0 -4.79 -8.06 0 8.06 -2.23 0zm15.08 0l0 -5.2 -4.35 -7.15 2.81 0 2.8 4.89 2.75 -4.89 2.76 0 -4.37 7.17 0 5.19 -2.39 0z"/>
 </g>
</svg>
